# xmcd
#
# Track frame offsets: 
#        150
#        16107
#        37367
#        54337
#        69835
#        86687
#        112538
#        132231
#        155748
#
# Disc length: 2287 seconds
#
# Revision: 0
# Processed by: cddbd v1.4PL0 Copyright (c) Steve Scherf et al.
# Submitted via: ExactAudioCopy v0.90b4
#
DISCID=6a08ed09
DTITLE=Paul Butterfield - Sometime I Just Feel Like Smilin'
DYEAR=1900
DGENRE=
TTITLE0=Play On
TTITLE1=1000 Ways
TTITLE2=Pretty Woman
TTITLE3=Little Piece of Dying
TTITLE4=Song for Lee
TTITLE5=Trainman
TTITLE6=Night Child
TTITLE7=Drowned in My Own Tears
TTITLE8=Blind Leading the Blind
EXTD=
EXTT0=
EXTT1=
EXTT2=
EXTT3=
EXTT4=
EXTT5=
EXTT6=
EXTT7=
EXTT8=
PLAYORDER=
